<svg xmlns="http://www.w3.org/2000/svg" viewBox="0 0 900 560">
  <defs>
    <linearGradient id="bg" x1="0" y1="0" x2="1" y2="1">
      <stop offset="0" stop-color="#1e2023" />
      <stop offset="1" stop-color="#131416" />
    </linearGradient>
    <linearGradient id="glow" x1="0" y1="0" x2="1" y2="1">
      <stop offset="0" stop-color="#2b2e34" />
      <stop offset="1" stop-color="#1b1d20" />
    </linearGradient>
  </defs>
  <rect width="900" height="560" rx="32" fill="url(#bg)" stroke="#2b2e31" />
  <rect x="40" y="40" width="820" height="420" rx="24" fill="url(#glow)" stroke="#2a2c2e" />

  <rect x="90" y="90" width="320" height="80" rx="14" fill="#141517" stroke="#2a2c2e" />
  <rect x="440" y="90" width="330" height="80" rx="14" fill="#141517" stroke="#2a2c2e" />

  <rect x="90" y="200" width="320" height="180" rx="18" fill="#111214" stroke="#2a2c2e" />
  <rect x="440" y="200" width="330" height="220" rx="18" fill="#111214" stroke="#2a2c2e" />

  <path d="M170 260 L280 260 L280 310" stroke="#2f6cff" stroke-width="2" fill="none" />
  <path d="M480 260 L600 260 L600 330" stroke="#ff5d5d" stroke-width="2" fill="none" />
  <path d="M540 360 L640 360 L640 400" stroke="#ff9b4a" stroke-width="2" fill="none" />

  <rect x="120" y="110" width="120" height="16" rx="8" fill="#2b2f35" />
  <rect x="460" y="110" width="140" height="16" rx="8" fill="#2b2f35" />
  <rect x="120" y="130" width="80" height="12" rx="6" fill="#1f2328" />

  <rect x="480" y="220" width="200" height="16" rx="8" fill="#1f2328" />
  <rect x="480" y="244" width="160" height="12" rx="6" fill="#1a1e22" />
  <rect x="120" y="220" width="180" height="16" rx="8" fill="#1f2328" />
  <rect x="120" y="244" width="140" height="12" rx="6" fill="#1a1e22" />

  <rect x="90" y="470" width="720" height="18" rx="9" fill="#101112" stroke="#2a2c2e" />
  <circle cx="120" cy="479" r="4" fill="#5b5f63" />
  <circle cx="160" cy="479" r="4" fill="#5b5f63" />
  <circle cx="200" cy="479" r="4" fill="#5b5f63" />
  <circle cx="240" cy="479" r="4" fill="#5b5f63" />
  <circle cx="280" cy="479" r="4" fill="#5b5f63" />
</svg>
